<svg xmlns="http://www.w3.org/2000/svg" viewBox="0 0 254.74 211.66"><title>Asset 33</title><g id="Layer_2" data-name="Layer 2"><g id="Layer_1-2" data-name="Layer 1"><path d="M238.21,211.66H16.52A16.54,16.54,0,0,1,0,195.14V16.52A16.54,16.54,0,0,1,16.52,0H238.21a16.55,16.55,0,0,1,16.53,16.52V195.14A16.55,16.55,0,0,1,238.21,211.66ZM16.52,11a5.51,5.51,0,0,0-5.5,5.5V195.14a5.51,5.51,0,0,0,5.5,5.5H238.21a5.51,5.51,0,0,0,5.51-5.5V16.52a5.51,5.51,0,0,0-5.51-5.5Z" style="fill:#3c92ca"/><rect x="5.51" y="41.31" width="243.72" height="11.02" style="fill:#3c92ca"/><circle cx="28.92" cy="27.54" r="5.51" style="fill:#3c92ca"/><circle cx="44.06" cy="27.54" r="5.51" style="fill:#3c92ca"/><circle cx="59.21" cy="27.54" r="5.51" style="fill:#3c92ca"/><path d="M118.42,169a3.52,3.52,0,0,1-1-.13,3.8,3.8,0,0,1-2.72-4.63l17.9-68.85A3.8,3.8,0,0,1,140,97.34l-17.9,68.85A3.82,3.82,0,0,1,118.42,169Z" style="fill:#3c92ca"/><path d="M95,154.41a5.65,5.65,0,0,1-4-1.67L64.65,126.42l28-24.67a5.7,5.7,0,1,1,7.55,8.55L81.3,126.94,99,144.68a5.7,5.7,0,0,1-4,9.73Z" style="fill:#3c92ca"/><path d="M162.48,155.79a5.71,5.71,0,0,1-4-9.74l17.74-17.73-18.86-16.64a5.71,5.71,0,0,1,7.55-8.56l28,24.68-26.33,26.32A5.69,5.69,0,0,1,162.48,155.79Z" style="fill:#3c92ca"/></g></g></svg>