<svg xmlns="http://www.w3.org/2000/svg" viewBox="0 0 258.93 195.83"><title>Asset 30</title><g id="Layer_2" data-name="Layer 2"><g id="Layer_1-2" data-name="Layer 1"><path d="M127.52,195.83c-39.06,0-77.62-3-92.54-8C14.46,181,1.77,164.15.16,141.62c-1.49-21.06,7.36-43,20.59-52.32-4.35-16.26-1.06-30,9.8-40.84,13.22-13.22,32.6-11.2,40.75-9.59C77.85,28.92,99.94,0,135.49,0c48.27,0,71.38,42.18,76.14,65.46a77.32,77.32,0,0,1,27.43,16.85A66,66,0,0,1,258,140.53a59.55,59.55,0,0,1-33.83,44.62C208.08,192.65,167.54,195.83,127.52,195.83ZM59.45,47.77c-7,0-15.58,1.57-21.8,7.79C25.77,67.45,28.42,80.9,31.45,90l1.37,4.13-3.89,1.95C17.25,101.9,8.84,122,10.18,140.9c.77,10.75,5.42,29.89,28,37.41,13.32,4.44,49.77,7.49,89.08,7.49h1.88c43.35-.11,78.14-3.85,90.8-9.75a49.68,49.68,0,0,0,28.17-37.21A55.92,55.92,0,0,0,232,89.49a67.49,67.49,0,0,0-26.15-15.32l-3.18-.87L202.23,70c-1.81-12.67-18.44-60-66.74-60C99.28,10,78.25,46.68,78,47.05l-2,3.5L72.22,49.4A50.69,50.69,0,0,0,59.45,47.77Z" style="fill:#3c92ca"/><rect x="127.64" y="85.88" width="6.93" height="76.41" style="fill:#3c92ca"/><path d="M148,161.62c0-1-.34-24.06,1.93-34,2.73-12,16.33-13.79,23.15-13l-.77,6.9c-.54-.06-13.57-1.34-15.62,7.67-2.09,9.18-1.76,32.18-1.76,32.41Z" style="fill:#3c92ca"/><path d="M113.32,161.62l-6.93-.1c0-.23.32-23.23-1.76-32.41-2-9-15.07-7.73-15.63-7.67l-.76-6.9c6.81-.75,20.42,1,23.15,13C113.66,137.56,113.34,160.65,113.32,161.62Z" style="fill:#3c92ca"/><path d="M189.1,134.79a18.45,18.45,0,1,1,18.45-18.45A18.47,18.47,0,0,1,189.1,134.79Zm0-31a12.55,12.55,0,1,0,12.55,12.54A12.56,12.56,0,0,0,189.1,103.8Z" style="fill:#3c92ca"/><path d="M71.26,134.79a18.45,18.45,0,1,1,18.45-18.45A18.47,18.47,0,0,1,71.26,134.79Zm0-31A12.55,12.55,0,1,0,83.8,116.34,12.56,12.56,0,0,0,71.26,103.8Z" style="fill:#3c92ca"/><circle cx="130.38" cy="74.12" r="13.36" style="fill:#3c92ca"/></g></g></svg>