<svg xmlns="http://www.w3.org/2000/svg" viewBox="0 0 230.99 226.46"><title>Asset 27</title><g id="Layer_2" data-name="Layer 2"><g id="Layer_1-2" data-name="Layer 1"><path d="M185.54,8.07c-22-4.9-50-8.07-71.18-8.07-21,0-48.55,3.17-70.07,8.07C14.49,14.86,0,23.69,0,35.05V191.41c0,14.94,27,22.58,47.37,27,24,5.26,50.74,8,64.73,8,24.06,0,52.76-3.09,74.87-8.07,29.62-6.66,44-15.49,44-27V35.05C231,23.69,216.12,14.86,185.54,8.07ZM46.77,19c20.77-4.73,47.31-7.79,67.59-7.79s47.77,3.13,68.76,7.8c30.1,6.69,36.69,13.87,36.69,16.07s-5.46,8.83-30.42,15.4c-23.2,6.13-54.16,9.54-77,8.48C98.51,58.29,69,55.24,44.27,49.46,12.08,42,11.18,35.12,11.18,35.05,11.18,32.83,17.57,25.62,46.77,19ZM11.18,49.77l.51.29.53.29a68.38,68.38,0,0,0,6.48,3l1.59.63,1.78.67,1.13.4a175.24,175.24,0,0,0,18.53,5.26c25.42,6,55.85,9.1,70.11,9.75,5.54.26,11.53.26,17.76,0,1.48,0,3-.12,4.47-.19a319.34,319.34,0,0,0,36.77-4.1l4.47-.8,2.21-.43c1.46-.29,2.91-.58,4.35-.89s2.85-.62,4.24-.94,2.77-.66,4.12-1l2-.52q3.62-1,6.89-2c1.2-.37,2.37-.74,3.5-1.12,1.28-.43,2.51-.86,3.7-1.3l1.76-.67c1.15-.45,2.26-.9,3.32-1.36.53-.23,1.05-.46,1.56-.7s1-.46,1.5-.7l1.43-.72,1.38-.72c.88-.49,1.73-1,2.53-1.48V75.84c0,1.83-4.62,7.88-25.59,14.06l-.78.22c-23.4,6.79-56.74,10.73-81.09,9.6C97.67,99,65,95.58,39.8,89.16,12,82.08,11.18,75.9,11.18,75.84ZM219.81,191.41c0,2.26-6.34,9.56-35.29,16.08-21.37,4.81-49.12,7.79-72.42,7.79-13.07,0-39.35-2.71-62.34-7.75-31.49-6.9-38.58-14.13-38.58-16.12V165.35l1,.57.71.38.74.38.76.37c.34.17.69.34,1.05.5s.67.31,1,.46c.71.32,1.46.64,2.23,1l1.31.53,1.36.52.82.3,1.06.38,1.92.66,2.33.75.85.26.56.17,1.06.32Q33.75,174,38,175l2.4.59,1.32.31.64.15c25.29,5.86,55.35,8.95,69.49,9.6,2.91.14,6,.2,9.09.2,5.64,0,11.6-.21,17.68-.62q3.42-.24,6.89-.54c10-.9,20.19-2.29,29.81-4.09l4-.79.74-.15c1.32-.27,2.63-.55,3.92-.84,2.83-.63,5.59-1.3,8.24-2l2.37-.64c.94-.26,1.85-.52,2.75-.79l1.77-.53c.73-.22,1.45-.45,2.15-.68l1.95-.64c.81-.27,1.59-.55,2.35-.82.58-.21,1.15-.42,1.71-.64l1.66-.65a72.17,72.17,0,0,0,9.73-4.65l1.13-.69ZM189.39,166c-23.21,6.14-54.16,9.54-77,8.48C98.51,173.86,69,170.82,44.28,165l-.65-.15c-31.57-7.44-32.45-14.19-32.45-14.26V129.1c.66.38,1.34.75,2.06,1.11.36.19.72.37,1.1.55.74.36,1.52.72,2.33,1.08s1.64.7,2.51,1a131,131,0,0,0,13.58,4.49c26.27,7.31,62.45,11.25,79.08,12,3.07.14,6.25.21,9.51.21l2.78,0H125l2.61-.06c1,0,2.06-.06,3.09-.1q2.94-.1,5.94-.29L139,149l2.74-.2,3.72-.31,3.45-.32.28,0q1.8-.18,3.6-.39a1.24,1.24,0,0,0,.27,0q1.8-.19,3.6-.42c1.71-.22,3.42-.45,5.12-.69h0l3.34-.49c1.12-.17,2.22-.34,3.33-.53l2.21-.37q4.41-.75,8.66-1.62c1.61-.33,3.21-.68,4.78-1l.54-.12c1.4-.31,2.77-.64,4.13-1,1.53-.38,3-.77,4.5-1.16l2.19-.61,2.14-.62c.7-.2,1.4-.42,2.09-.63l.86-.26,1.89-.62,2.45-.84,1.37-.49,1.48-.56c.56-.21,1.1-.43,1.64-.65s1.06-.43,1.58-.65l1-.44c1.17-.51,2.29-1,3.35-1.56l1.34-.69.56-.3c.44-.23.87-.47,1.28-.71l.66-.39c.21-.12.42-.24.62-.37v20.71C219.81,152.68,214.35,159.45,189.39,166Zm8.6-38.75-.83.26c-23.33,7.39-59,11.9-84.8,10.71-16.15-.75-51.22-4.57-76.61-11.63-23.9-6.64-24.57-12.19-24.57-12.25V90.58l.3.16Q13.63,92,16.19,93.1c.92.41,1.88.82,2.87,1.22S21,95.07,22,95.44l.87.32c.86.31,1.75.61,2.66.91,2.17.72,4.48,1.42,7,2.1l2.25.61.51.14,1.82.47c26,6.62,59.66,10.19,74.79,10.89,4,.18,8.14.24,12.48.17l2.09,0,1.36,0c1.55,0,3.11-.1,4.7-.18l2.38-.12c1.59-.08,3.19-.18,4.81-.3q1.2-.07,2.4-.18h.06l2.4-.2,2.79-.25,3-.31,3.05-.34q2.91-.33,5.82-.72,1-.12,2-.27l2.59-.37c1.11-.16,2.22-.33,3.32-.51q3.31-.53,6.56-1.11l4.67-.89,3.43-.71c1.14-.24,2.26-.48,3.37-.74,1.48-.34,2.94-.69,4.38-1s2.84-.73,4.21-1.1l2.05-.57.79-.22c1.24-.36,2.44-.72,3.62-1.09l1.62-.51c1-.33,2-.67,3-1l1.5-.54.52-.19,1.67-.63a71.2,71.2,0,0,0,11.34-5.48v23C219.81,116.39,215.23,121.66,198,127.27Z" style="fill:#3c92ca"/></g></g></svg>