<svg xmlns="http://www.w3.org/2000/svg" viewBox="0 0 252.74 210"><title>Asset 31</title><g id="Layer_2" data-name="Layer 2"><g id="Layer_1-2" data-name="Layer 1"><path d="M122.71,158.4a36.7,36.7,0,1,1,36.69-38.33h0a36.76,36.76,0,0,1-35.05,38.3Zm0-63.86-1.21,0a27.16,27.16,0,1,0,28.33,25.94h0A27.19,27.19,0,0,0,122.74,94.54Z" style="fill:#3c92ca"/><path d="M161.57,172.09a5.63,5.63,0,0,1-4.17-1.83l-15.06-16.39a5.66,5.66,0,1,1,8.34-7.66l15.06,16.4a5.66,5.66,0,0,1-4.17,9.48Z" style="fill:#3c92ca"/><path d="M236.34,210H16.39A16.41,16.41,0,0,1,0,193.61V16.39A16.41,16.41,0,0,1,16.39,0h220a16.41,16.41,0,0,1,16.4,16.39V193.61A16.41,16.41,0,0,1,236.34,210ZM16.39,10.93a5.47,5.47,0,0,0-5.46,5.46V193.61a5.47,5.47,0,0,0,5.46,5.46h220a5.47,5.47,0,0,0,5.47-5.46V16.39a5.47,5.47,0,0,0-5.47-5.46Z" style="fill:#3c92ca"/><rect x="5.46" y="40.98" width="241.81" height="10.93" style="fill:#3c92ca"/><circle cx="28.69" cy="27.32" r="5.46" style="fill:#3c92ca"/><circle cx="43.72" cy="27.32" r="5.46" style="fill:#3c92ca"/><circle cx="58.74" cy="27.32" r="5.46" style="fill:#3c92ca"/></g></g></svg>