<svg xmlns="http://www.w3.org/2000/svg" viewBox="0 0 227.89 227.89"><title>Asset 29</title><g id="Layer_2" data-name="Layer 2"><g id="Layer_1-2" data-name="Layer 1"><path d="M113.88,227.89a113.94,113.94,0,1,1,113.9-119h0A114,114,0,0,1,119,227.78C117.28,227.85,115.57,227.89,113.88,227.89Zm.17-217c-1.55,0-3.1,0-4.66.11a103.1,103.1,0,0,0,4.5,206.1c1.53,0,3.07,0,4.61-.11a103.09,103.09,0,0,0,98.44-107.55h0A103.11,103.11,0,0,0,114.05,10.84Z" style="fill:#3c92ca"/><path d="M88.68,131h9.25a1.9,1.9,0,0,1,1.91,1.75q.47,7.25,4.74,11,4.8,4.19,12.77,4.19c4.55,0,8.12-1.06,10.68-3.17a10.46,10.46,0,0,0,3.86-8.52,8.44,8.44,0,0,0-3.68-7.38,43.44,43.44,0,0,0-8.59-4.65l-6.69-2.85q-9-3.9-10.77-4.89a50.46,50.46,0,0,1-7-4.76,16.29,16.29,0,0,1-4.82-6.52A24.34,24.34,0,0,1,89,96.38a21.66,21.66,0,0,1,5.92-15.5A25.14,25.14,0,0,1,109,73.55a2,2,0,0,0,1.63-1.89v.11a5.6,5.6,0,0,1,5.6-5.61h0a5.6,5.6,0,0,1,5.6,5.61v.37A1.94,1.94,0,0,0,123.33,74c5.62,1.49,11.74,4.35,15.46,8.6S144.63,92.24,145,99a2,2,0,0,1-1.93,2.07H133.8a2,2,0,0,1-2-1.8q-.41-7-4.14-10.47-4.22-4-11.68-4-6.18,0-10,3a9.63,9.63,0,0,0-3.85,8,11.39,11.39,0,0,0,2.29,6.66,3,3,0,0,0,.22.28,13,13,0,0,0,3.27,2.37l4,2.15,1.26.46c.52.2,1.2.47,2,.82s1.62.66,2.35.93l6.75,2.91q10.79,4.41,16.15,9.36t5.25,13.49q0,9.76-5.69,16.22c-3.5,4-10,6.54-16.55,7.71a1.93,1.93,0,0,0-1.62,1.89v1.63a5.6,5.6,0,0,1-5.6,5.61h0a5.6,5.6,0,0,1-5.6-5.61v-1.49a1.93,1.93,0,0,0-1.66-1.89A26.39,26.39,0,0,1,93.45,151q-6.21-6.75-6.7-18A1.92,1.92,0,0,1,88.68,131Z" style="fill:#3c92ca"/></g></g></svg>