<?xml version="1.0" encoding="iso-8859-1"?>
<!-- Generator: Adobe Illustrator 19.0.0, SVG Export Plug-In . SVG Version: 6.00 Build 0)  -->
<svg version="1.1" id="Capa_1" xmlns="http://www.w3.org/2000/svg" xmlns:xlink="http://www.w3.org/1999/xlink" x="0px" y="0px"
	 viewBox="0 0 496 496" style="enable-background:new 0 0 496 496;" xml:space="preserve">
<path style="fill:#FFCB57;" d="M245.368,228c-11.136-54.744-59.336-96-117.368-96C61.728,132,8,185.728,8,252s53.728,120,120,120
	c58.032,0,106.232-41.256,117.368-96H360v32h48v-32h32v32h48v-80H245.368z"/>
<g>
	<rect x="416" y="156" style="fill:#E56565;" width="16" height="16"/>
	<rect x="416" y="188" style="fill:#E56565;" width="16" height="16"/>
	<rect x="432" y="172" style="fill:#E56565;" width="16" height="16"/>
	<rect x="400" y="172" style="fill:#E56565;" width="16" height="16"/>
	<rect x="304" y="140" style="fill:#E56565;" width="16" height="16"/>
	<rect x="304" y="172" style="fill:#E56565;" width="16" height="16"/>
	<rect x="320" y="156" style="fill:#E56565;" width="16" height="16"/>
	<rect x="288" y="156" style="fill:#E56565;" width="16" height="16"/>
	<rect x="320" y="316" style="fill:#E56565;" width="16" height="16"/>
	<rect x="320" y="348" style="fill:#E56565;" width="16" height="16"/>
	<rect x="336" y="332" style="fill:#E56565;" width="16" height="16"/>
	<rect x="304" y="332" style="fill:#E56565;" width="16" height="16"/>
	<rect x="448" y="332" style="fill:#E56565;" width="16" height="16"/>
	<rect x="448" y="364" style="fill:#E56565;" width="16" height="16"/>
	<rect x="464" y="348" style="fill:#E56565;" width="16" height="16"/>
	<rect x="432" y="348" style="fill:#E56565;" width="16" height="16"/>
	<rect x="368" y="76" style="fill:#E56565;" width="16" height="16"/>
	<rect x="368" y="108" style="fill:#E56565;" width="16" height="16"/>
	<rect x="384" y="92" style="fill:#E56565;" width="16" height="16"/>
	<rect x="352" y="92" style="fill:#E56565;" width="16" height="16"/>
	<rect x="224" y="372" style="fill:#E56565;" width="16" height="16"/>
	<rect x="224" y="404" style="fill:#E56565;" width="16" height="16"/>
	<rect x="240" y="388" style="fill:#E56565;" width="16" height="16"/>
	<rect x="208" y="388" style="fill:#E56565;" width="16" height="16"/>
	<rect x="240" y="92" style="fill:#E56565;" width="16" height="16"/>
	<rect x="240" y="124" style="fill:#E56565;" width="16" height="16"/>
	<rect x="256" y="108" style="fill:#E56565;" width="16" height="16"/>
	<rect x="224" y="108" style="fill:#E56565;" width="16" height="16"/>
</g>
<g>
	<path style="fill:#3F3A34;" d="M116,220h24c6.616,0,12,5.384,12,12h16c0-15.44-12.56-28-28-28h-4v-16h-16v16h-4
		c-15.44,0-28,12.56-28,28s12.56,28,28,28h24c6.616,0,12,5.384,12,12s-5.384,12-12,12h-24c-6.616,0-12-5.384-12-12H88
		c0,15.44,12.56,28,28,28h4v16h16v-16h4c15.44,0,28-12.56,28-28s-12.56-28-28-28h-24c-6.616,0-12-5.384-12-12S109.384,220,116,220z"
		/>
	<path style="fill:#3F3A34;" d="M128,172c18.672,0,36.84,6.584,51.168,18.528l10.248-12.28C172.216,163.896,150.408,156,128,156
		c-52.936,0-96,43.064-96,96c0,22.408,7.896,44.216,22.248,61.424l12.28-10.248C54.584,288.84,48,270.672,48,252
		C48,207.888,83.888,172,128,172z"/>
	<path style="fill:#3F3A34;" d="M189.472,200.832C201.416,215.16,208,233.328,208,252c0,44.112-35.888,80-80,80
		c-18.672,0-36.84-6.584-51.168-18.528l-10.248,12.28C83.784,340.104,105.592,348,128,348c52.936,0,96-43.064,96-96
		c0-22.408-7.896-44.216-22.248-61.424L189.472,200.832z"/>
	<path style="fill:#3F3A34;" d="M251.728,220c-14.44-56.008-65.456-96-123.728-96C57.424,124,0,181.424,0,252s57.424,128,128,128
		c58.272,0,109.288-39.992,123.728-96H352v32h64v-32h16v32h64v-96H251.728z M480,300h-32v-32h-48v32h-32v-32H238.832l-1.296,6.408
		C226.96,326.32,180.896,364,128,364c-61.76,0-112-50.24-112-112s50.24-112,112-112c52.896,0,98.96,37.68,109.528,89.592
		l1.304,6.408H480V300z"/>
</g>
<g>
</g>
<g>
</g>
<g>
</g>
<g>
</g>
<g>
</g>
<g>
</g>
<g>
</g>
<g>
</g>
<g>
</g>
<g>
</g>
<g>
</g>
<g>
</g>
<g>
</g>
<g>
</g>
<g>
</g>
</svg>
