<svg xmlns="http://www.w3.org/2000/svg" viewBox="0 0 217.22 232.44"><title>Asset 34</title><g id="Layer_2" data-name="Layer 2"><g id="Layer_1-2" data-name="Layer 1"><circle cx="106.44" cy="124.86" r="23.44" style="fill:#3c92ca"/><path d="M106.08,6.44A15.28,15.28,0,1,1,90.8,21.71,15.3,15.3,0,0,1,106.08,6.44m0-6.44a21.72,21.72,0,1,0,21.71,21.71A21.72,21.72,0,0,0,106.08,0Z" style="fill:#3c92ca"/><path d="M21.71,171.79A15.28,15.28,0,1,1,6.44,187.07a15.29,15.29,0,0,1,15.27-15.28m0-6.44a21.72,21.72,0,1,0,21.72,21.72,21.71,21.71,0,0,0-21.72-21.72Z" style="fill:#3c92ca"/><path d="M195.5,166.73A15.28,15.28,0,1,1,180.22,182a15.29,15.29,0,0,1,15.28-15.28m0-6.44A21.72,21.72,0,1,0,217.22,182a21.71,21.71,0,0,0-21.72-21.72Z" style="fill:#3c92ca"/><circle cx="20.03" cy="68.96" r="13.31" style="fill:#3c92ca"/><circle cx="106.08" cy="219.12" r="13.31" style="fill:#3c92ca"/><circle cx="185.38" cy="65.58" r="13.31" style="fill:#3c92ca"/><rect x="102.89" y="37.12" width="6.75" height="175.48" style="fill:#3c92ca"/><rect x="18.52" y="121.48" width="175.48" height="6.75" transform="translate(-53.49 87.97) rotate(-36.6)" style="fill:#3c92ca"/><rect x="102.84" y="34.53" width="6.85" height="180.66" transform="translate(-56.25 146.54) rotate(-57.2)" style="fill:#3c92ca"/></g></g></svg>