<svg xmlns="http://www.w3.org/2000/svg" viewBox="0 0 636.28 125.12"><title>swiego_logo</title><g id="Layer_1" data-name="Layer 1"><rect x="569.54" y="66.95" width="2.33" height="15.36" style="fill:#6dcfd2"/><path d="M571.15,67.7a6.25,6.25,0,1,1,6.25-6.24A6.25,6.25,0,0,1,571.15,67.7Zm0-10.16a3.92,3.92,0,1,0,3.92,3.92A3.92,3.92,0,0,0,571.15,57.54Z" style="fill:#6dcfd2"/><path d="M581.07,43.44a6.25,6.25,0,1,1,6.25-6.25A6.26,6.26,0,0,1,581.07,43.44Zm0-10.17A3.92,3.92,0,1,0,585,37.19,3.93,3.93,0,0,0,581.07,33.27Z" style="fill:#6dcfd2"/><path d="M591,58.75a6.25,6.25,0,1,1,6.25-6.25A6.25,6.25,0,0,1,591,58.75Zm0-10.17a3.92,3.92,0,1,0,3.92,3.92A3.92,3.92,0,0,0,591,48.58Z" style="fill:#6dcfd2"/><rect x="579.9" y="42.08" width="2.33" height="44.83" style="fill:#6dcfd2"/><rect x="589.82" y="58.37" width="2.33" height="28.53" style="fill:#6dcfd2"/><rect x="579.97" y="85.41" width="12.16" height="1.52" style="fill:#6dcfd2"/><rect x="570" y="80.84" width="12.16" height="1.52" style="fill:#6dcfd2"/><path id="_Compound_Path_" data-name="&lt;Compound Path&gt;" d="M37.61,74.34q-35.92,0-35.93-22.58V47q0-22.58,35.93-22.57H49.75c1.94,0,3.22.54,3.82,1.63A10.4,10.4,0,0,1,54.48,31a10.42,10.42,0,0,1-.91,4.92c-.6,1.09-1.88,1.64-3.82,1.64H37.25q-10.68,0-15.11,2.72c-3,1.83-4.43,4.07-4.43,6.74v4.73c0,2.6,1.47,4.82,4.43,6.68s8,2.79,15.11,2.79H65.89q35.94,0,35.93,22.58v6.07q0,22.58-35.93,22.58H6.42c-1.94,0-3.22-.55-3.83-1.64a10.52,10.52,0,0,1-.91-4.92A10.47,10.47,0,0,1,2.59,101c.61-1.1,1.89-1.64,3.83-1.64H66.26q10.68,0,15.11-2.74c2.95-1.81,4.43-4.06,4.43-6.73V83.81c0-2.59-1.48-4.81-4.43-6.68s-8-2.79-15.11-2.79Z" style="fill:#3b4e60"/><path id="_Compound_Path_2" data-name="&lt;Compound Path&gt;" d="M149.7,107.72q-2.31,5.22-9.34,5.22a12.92,12.92,0,0,1-6.07-1.33,8.71,8.71,0,0,1-3.89-4.25L96.66,32.47a6.18,6.18,0,0,1-.73-2.8,4.68,4.68,0,0,1,2.49-4.18A12.09,12.09,0,0,1,104.79,24a9.11,9.11,0,0,1,4.43.91,5.92,5.92,0,0,1,2.49,2.73l28.4,66.64L169.61,30a11.68,11.68,0,0,1,3.64-4.8A10.26,10.26,0,0,1,178.83,24c2.59,0,4.43.43,5.53,1.27a12.66,12.66,0,0,1,3.21,4.8L217,94.25l29.13-66.64Q247.65,24,253,24a12.09,12.09,0,0,1,6.37,1.52,4.68,4.68,0,0,1,2.49,4.18,6.32,6.32,0,0,1-.73,2.8l-34.47,74.89q-2.55,5.58-10,5.58a13.12,13.12,0,0,1-5.76-1.21,8.23,8.23,0,0,1-3.83-4L178.47,45.33Z" style="fill:#3b4e60"/><path id="_Compound_Path_3" data-name="&lt;Compound Path&gt;" d="M289.64,107.24q0,3.51-2.07,4.61a13.26,13.26,0,0,1-6.07,1.09,12.91,12.91,0,0,1-5.94-1.09q-2.07-1.09-2.07-4.61V29.67q0-3.51,2.07-4.61A12.91,12.91,0,0,1,281.5,24a13.26,13.26,0,0,1,6.07,1.09q2.07,1.1,2.07,4.61Z" style="fill:#3b4e60"/><path id="_Compound_Path_4" data-name="&lt;Compound Path&gt;" d="M323.27,75.68v14.2c0,2.59,1.62,4.81,4.85,6.68s8.42,2.79,15.54,2.79h58c1.94,0,3.22.54,3.82,1.64a10.35,10.35,0,0,1,.91,4.91,10.45,10.45,0,0,1-.91,4.86c-.6,1.13-1.88,1.7-3.82,1.7h-58.5q-35.94,0-35.93-22.58V47q0-22.58,35.93-22.57h56.23c1.86,0,3.1.54,3.7,1.63A10.4,10.4,0,0,1,404,31a10.42,10.42,0,0,1-.91,4.92c-.6,1.09-1.84,1.64-3.7,1.64H343.66q-10.68,0-15.54,2.72c-3.23,1.83-4.85,4.07-4.85,6.74V62.57h42c1.94,0,3.21.55,3.82,1.64a10.35,10.35,0,0,1,.91,4.91,10.37,10.37,0,0,1-.91,4.92c-.61,1.09-1.88,1.64-3.82,1.64Z" style="fill:#3b4e60"/><path id="_Compound_Path_5" data-name="&lt;Compound Path&gt;" d="M525.94,89.88q0,11.66-9.17,17.11t-26.88,5.47H453.11q-35.94,0-35.93-22.58V47q0-22.58,35.93-22.57h17.11c1.94,0,3.22.54,3.83,1.63A10.52,10.52,0,0,1,475,31a10.55,10.55,0,0,1-.91,4.92c-.61,1.09-1.89,1.64-3.83,1.64H453.59q-10.68,0-15.53,2.72c-3.24,1.83-4.86,4.07-4.86,6.74V89.88c0,2.59,1.62,4.81,4.86,6.68s8.41,2.79,15.53,2.79H489.4q10.68,0,15.48-2.79c3.19-1.87,4.79-4.09,4.79-6.68V68.27q0-3.51,2-4.61a12.93,12.93,0,0,1,6-1.09,13.72,13.72,0,0,1,6.13,1.09q2.13,1.09,2.13,4.61Z" style="fill:#3b4e60"/><path id="_Path_" data-name="&lt;Path&gt;" d="M519.3,62.61H486.35c-1.63,0-2.72.48-3.25,1.44a9.19,9.19,0,0,0-.8,4.32,9.19,9.19,0,0,0,.8,4.32c.53,1,1.62,1.44,3.25,1.44h31.06C517.9,70.27,518.57,66.44,519.3,62.61Z" style="fill:#3b4e60"/><path d="M604.66,117.73a7.06,7.06,0,0,1-.88,3.85c-.53,1-1.61,1.45-3.24,1.45l-14.81-.1-6.48.1c-1.65,0-2.73-.48-3.26-1.45a7.08,7.08,0,0,1-.86-3.85,7.23,7.23,0,0,1,.79-3.86c.53-1,1.62-1.45,3.24-1.45h21.45c1.62,0,2.71.49,3.25,1.45A7.12,7.12,0,0,1,604.66,117.73Z" style="fill:#3b4e60"/><path id="_Path_2" data-name="&lt;Path&gt;" d="M609.94,97H571.83c-1.64,0-2.73.49-3.27,1.45a9.13,9.13,0,0,0-.8,4.34,9.13,9.13,0,0,0,.8,4.34c.54,1,1.63,1.45,3.27,1.45l36.86-1C609.18,103.66,609.2,100.85,609.94,97Z" style="fill:#3b4e60"/><path id="_Path_3" data-name="&lt;Path&gt;" d="M540.47,66.88l2.8,7.2c.68,1.5,1.57,2.29,2.67,2.38a12.19,12.19,0,0,0,7.92-3.58c.65-.89.64-2.08,0-3.58l-3.11-5.17C547,65.29,544.28,66,540.47,66.88Z" style="fill:#3b4e60"/><path d="M610.06,108.3H581.43v-11H599v-13L602,82.78c12.89-6.85,21.23-19.9,21.23-33.26a37.63,37.63,0,1,0-73.45,11.57,37.14,37.14,0,0,0,3.68,8L544,74.84a48.65,48.65,0,1,1,90.19-25.32c0,16.33-9.37,32.21-24.15,41.32Z" style="fill:#3b4e60"/></g></svg>