<svg xmlns="http://www.w3.org/2000/svg" viewBox="0 0 640.11 125.12"><title>swiego_logo</title><g id="Layer_3" data-name="Layer 3"><rect x="572.49" y="68.65" width="2.33" height="15.36" style="fill:#6dcfd2"/><path d="M574.1,69.4a6.25,6.25,0,1,1,6.25-6.25A6.26,6.26,0,0,1,574.1,69.4Zm0-10.16A3.92,3.92,0,1,0,578,63.15,3.92,3.92,0,0,0,574.1,59.24Z" style="fill:#6dcfd2"/><path d="M584,45.13a6.25,6.25,0,1,1,6.24-6.24A6.25,6.25,0,0,1,584,45.13ZM584,35a3.92,3.92,0,1,0,3.91,3.92A3.93,3.93,0,0,0,584,35Z" style="fill:#6dcfd2"/><path d="M593.93,60.45a6.25,6.25,0,1,1,6.25-6.25A6.26,6.26,0,0,1,593.93,60.45Zm0-10.17a3.92,3.92,0,1,0,3.92,3.92A3.93,3.93,0,0,0,593.93,50.28Z" style="fill:#6dcfd2"/><rect x="582.85" y="43.78" width="2.33" height="44.83" style="fill:#6dcfd2"/><rect x="592.77" y="60.07" width="2.33" height="28.53" style="fill:#6dcfd2"/><rect x="582.92" y="87.11" width="12.16" height="1.52" style="fill:#6dcfd2"/><rect x="572.94" y="82.54" width="12.16" height="1.52" style="fill:#6dcfd2"/><path id="_Compound_Path_" data-name="&lt;Compound Path&gt;" d="M40.56,76Q4.63,76,4.63,53.46V48.73q0-22.57,35.93-22.58H52.7c1.94,0,3.21.55,3.82,1.64a10.37,10.37,0,0,1,.91,4.92,10.35,10.35,0,0,1-.91,4.91c-.61,1.1-1.88,1.64-3.82,1.64H40.2q-10.68,0-15.12,2.73t-4.43,6.74v4.73q0,3.88,4.43,6.68T40.2,62.93H68.84q35.93,0,35.93,22.58v6.07q0,22.58-35.93,22.57H9.37c-1.95,0-3.22-.54-3.83-1.64a10.47,10.47,0,0,1-.91-4.91,10.55,10.55,0,0,1,.91-4.92c.61-1.09,1.88-1.64,3.83-1.64H69.21q10.68,0,15.11-2.73t4.43-6.73V85.51q0-3.89-4.43-6.68T69.21,76Z" style="fill:#f9f9f9"/><path id="_Compound_Path_2" data-name="&lt;Compound Path&gt;" d="M152.65,109.42q-2.31,5.22-9.35,5.22a12.82,12.82,0,0,1-6.07-1.34,8.67,8.67,0,0,1-3.88-4.24L99.61,34.16a6.18,6.18,0,0,1-.73-2.79,4.67,4.67,0,0,1,2.49-4.18,12.06,12.06,0,0,1,6.37-1.52,9.11,9.11,0,0,1,4.43.91,5.92,5.92,0,0,1,2.49,2.73L143.06,96l29.5-64.21a11.6,11.6,0,0,1,3.64-4.8,10.15,10.15,0,0,1,5.58-1.27q3.89,0,5.52,1.27a12.55,12.55,0,0,1,3.22,4.8L219.89,96,249,29.31q1.58-3.64,6.91-3.64a12.12,12.12,0,0,1,6.38,1.52,4.67,4.67,0,0,1,2.49,4.18,6.31,6.31,0,0,1-.73,2.79l-34.47,74.9c-1.71,3.72-5,5.58-10,5.58a13.09,13.09,0,0,1-5.76-1.21,8.23,8.23,0,0,1-3.83-4L181.42,47Z" style="fill:#f9f9f9"/><path id="_Compound_Path_3" data-name="&lt;Compound Path&gt;" d="M292.59,108.94q0,3.51-2.07,4.61a13.32,13.32,0,0,1-6.07,1.09,12.91,12.91,0,0,1-5.94-1.09q-2.07-1.1-2.07-4.61V31.37q0-3.51,2.07-4.61a12.91,12.91,0,0,1,5.94-1.09,13.32,13.32,0,0,1,6.07,1.09q2.07,1.09,2.07,4.61Z" style="fill:#f9f9f9"/><path id="_Compound_Path_4" data-name="&lt;Compound Path&gt;" d="M326.22,77.38v14.2c0,2.59,1.61,4.81,4.85,6.67s8.42,2.79,15.54,2.79h58c1.94,0,3.22.55,3.82,1.64a10.42,10.42,0,0,1,.91,4.92,10.48,10.48,0,0,1-.91,4.86c-.6,1.13-1.88,1.69-3.82,1.69H346.12q-35.92,0-35.93-22.57V48.73q0-22.57,35.93-22.58h56.24c1.86,0,3.09.55,3.7,1.64a10.37,10.37,0,0,1,.91,4.92,10.35,10.35,0,0,1-.91,4.91c-.61,1.1-1.84,1.64-3.7,1.64H346.61q-10.68,0-15.54,2.73c-3.24,1.82-4.85,4.07-4.85,6.74V64.27h42c1.95,0,3.22.54,3.83,1.64a10.47,10.47,0,0,1,.91,4.91,10.49,10.49,0,0,1-.91,4.92c-.61,1.09-1.88,1.64-3.83,1.64Z" style="fill:#f9f9f9"/><path id="_Path_" data-name="&lt;Path&gt;" d="M522.25,64.4H489.3c-1.64,0-2.72.48-3.25,1.44a9,9,0,0,0-.8,4.31,9.06,9.06,0,0,0,.8,4.32c.53,1,1.61,1.44,3.25,1.44h31.06C520.85,72.05,521.52,68.22,522.25,64.4Z" style="fill:#f9f9f9"/><path id="_Compound_Path_5" data-name="&lt;Compound Path&gt;" d="M528.88,91.58q0,11.65-9.16,17.11t-26.89,5.46H456.06q-35.94,0-35.93-22.57V48.73q0-22.57,35.93-22.58h17.11c1.94,0,3.22.55,3.82,1.64a10.37,10.37,0,0,1,.91,4.92,10.35,10.35,0,0,1-.91,4.91c-.6,1.1-1.88,1.64-3.82,1.64H456.54Q445.86,39.26,441,42t-4.85,6.74V91.58q0,3.89,4.85,6.67T456.54,101h35.81q10.68,0,15.47-2.79t4.8-6.67V70q0-3.51,2-4.61a12.93,12.93,0,0,1,6-1.09,13.72,13.72,0,0,1,6.13,1.09q2.12,1.1,2.12,4.61Z" style="fill:#f9f9f9"/><path d="M607.61,119.43a7.09,7.09,0,0,1-.88,3.85c-.53,1-1.61,1.45-3.24,1.45l-14.81-.1-6.49.1c-1.64,0-2.72-.48-3.25-1.45a7.1,7.1,0,0,1-.87-3.85,7.19,7.19,0,0,1,.8-3.86c.53-1,1.61-1.45,3.24-1.45h21.44c1.63,0,2.71.49,3.26,1.45A7.19,7.19,0,0,1,607.61,119.43Z" style="fill:#f9f9f9"/><path id="_Path_2" data-name="&lt;Path&gt;" d="M612.81,98.93H574.69c-1.64,0-2.73.48-3.26,1.45a9.11,9.11,0,0,0-.81,4.34,9.07,9.07,0,0,0,.81,4.33c.53,1,1.62,1.45,3.26,1.45l36.87-1C612,105.59,612.07,102.77,612.81,98.93Z" style="fill:#f9f9f9"/><path id="_Path_3" data-name="&lt;Path&gt;" d="M543.34,68.81l2.8,7.2c.68,1.49,1.57,2.29,2.67,2.38a12.08,12.08,0,0,0,7.91-3.59c.66-.88.65-2.08,0-3.57l-3.11-5.17C549.84,67.21,547.15,67.89,543.34,68.81Z" style="fill:#f9f9f9"/><path d="M613,110H584.38V99H602V86l2.93-1.55c12.89-6.85,21.22-19.9,21.22-33.26a37.63,37.63,0,1,0-69.77,19.57L547,76.54a48.65,48.65,0,1,1,90.19-25.32c0,16.33-9.38,32.21-24.15,41.31Z" style="fill:#f9f9f9"/></g></svg>